<?xml version="1.0" standalone="no"?>
<!DOCTYPE svg PUBLIC "-//W3C//DTD SVG 1.1//EN" "http://www.w3.org/Graphics/SVG/1.1/DTD/svg11.dtd" >
<svg xmlns="http://www.w3.org/2000/svg" xmlns:xlink="http://www.w3.org/1999/xlink" version="1.1">
<metadata></metadata>
<defs>
<font id="public_sanssemibold" horiz-adv-x="1298" >
<font-face units-per-em="2048" ascent="1597" descent="-451" />
<missing-glyph horiz-adv-x="473" />
<glyph unicode="&#xfb01;" horiz-adv-x="1357" d="M53 883v176h209v158q0 128 71 196t204 68h223l2 -170h-150q-59 0 -81.5 -30t-22.5 -99v-123h244v-176h-240v-883h-250v883h-209zM954 1251v236h260v-236h-260zM961 0v1059h249v-1059h-249z" />
<glyph unicode="&#xfb02;" horiz-adv-x="1431" d="M53 883v176h209v158q0 128 71 196t204 68h223l2 -170h-150q-59 0 -81.5 -30t-22.5 -99v-123h244v-176h-240v-883h-250v883h-209zM950 287v1235h246v-1209q0 -138 119 -149l53 -2v-156q-58 -22 -111 -22q-79 0 -136.5 17.5t-90 44.5t-51 69.5t-24 81t-5.5 90.5z" />
<glyph horiz-adv-x="53" />
<glyph horiz-adv-x="53" />
<glyph horiz-adv-x="682" />
<glyph unicode="&#xd;" horiz-adv-x="483" />
<glyph unicode=" "  horiz-adv-x="473" />
<glyph unicode="&#x09;" horiz-adv-x="473" />
<glyph unicode="&#xa0;" horiz-adv-x="473" />
<glyph unicode="!" horiz-adv-x="548" d="M119 1481h295l-66 -1061h-160zM125 0v283h281v-283h-281z" />
<glyph unicode="&#x22;" horiz-adv-x="931" d="M125 1481h272l-71 -531h-131zM535 1481h272l-72 -531h-131z" />
<glyph unicode="#" horiz-adv-x="1249" d="M66 469v137h256l43 283h-234v137h254l68 459l137 -17l-66 -442h287l70 459l137 -17l-66 -442h222v-137h-242l-43 -283h219v-137h-240l-69 -473l-140 18l68 455h-287l-69 -473l-138 18l68 455h-235zM461 606h287l43 283h-287z" />
<glyph unicode="$" horiz-adv-x="1374" d="M111 399l260 9q27 -111 116 -168.5t222 -57.5q122 0 205 59t83 150q0 87 -53 136t-172 79l-250 60q-173 38 -269 135.5t-97 255.5q-1 175 122 291.5t326 144.5v205h221v-207q187 -30 298.5 -148t113.5 -276l-254 -8q-18 118 -81 177.5t-185 59.5q-128 0 -210.5 -57.5 t-82.5 -155.5q0 -73 49 -114.5t180 -77.5l244 -64q365 -95 365 -434q0 -164 -120 -273t-325 -134v-191h-221v191q-209 22 -335.5 126t-149.5 287z" />
<glyph unicode="%" horiz-adv-x="1890" d="M100 1079q0 185 104.5 304.5t260.5 119.5t259 -119.5t103 -304.5q0 -184 -102 -300.5t-260 -116.5t-261.5 117t-103.5 300zM287 1079q0 -133 45.5 -209.5t130.5 -76.5q88 0 133 75.5t45 210.5q0 137 -46 215t-132 78q-85 0 -130.5 -78.5t-45.5 -214.5zM408 -6l999 1503 h149l-995 -1505zM1053 399q0 184 104 304t260 120t259.5 -120t103.5 -304t-103 -301.5t-260 -117.5q-158 0 -261 117.5t-103 301.5zM1239 397q0 -130 45.5 -207t130.5 -77t130.5 77t45.5 207q0 134 -46.5 214.5t-129.5 80.5t-129.5 -81t-46.5 -214z" />
<glyph unicode="&#x26;" horiz-adv-x="1533" d="M92 371q0 145 87.5 249.5t277.5 204.5q-94 101 -137.5 176t-43.5 166q0 144 115.5 240t296.5 96t305.5 -88.5t124.5 -230.5q0 -95 -80.5 -197.5t-257.5 -200.5l275 -321q98 176 114 356h250q-6 -29 -15 -58.5t-17 -54t-22 -55.5t-22.5 -50.5t-26.5 -52t-26 -47.5 t-29.5 -49.5t-27.5 -44.5t-29.5 -47t-27.5 -43l272 -319h-287l-135 154q-215 -164 -469 -164q-225 0 -345 104t-120 277zM371 383q7 -90 78.5 -145.5t164.5 -55.5q73 0 152.5 32.5t138.5 88.5l-325 377q-225 -126 -209 -297zM522 1184q0 -104 113 -226l39 -43 q128 77 175.5 136.5t47.5 124.5q0 85 -58.5 128.5t-140.5 41.5q-82 -1 -129 -48t-47 -114z" />
<glyph unicode="'" horiz-adv-x="522" d="M125 1481h272l-71 -531h-131z" />
<glyph unicode="(" horiz-adv-x="653" d="M131 625q0 244 78.5 478t214.5 433h174q-111 -209 -174.5 -444t-63.5 -469q0 -226 56 -443t170 -454h-174q-141 237 -211 445t-70 454z" />
<glyph unicode=")" horiz-adv-x="663" d="M31 1536h174q136 -199 214.5 -433t78.5 -478q0 -246 -70 -454t-211 -445h-174q113 237 169 454t56 443q0 235 -63.5 470t-173.5 443z" />
<glyph unicode="*" horiz-adv-x="894" d="M57 1143l54 149l272 -114l-21 303h170l-24 -305l276 120l47 -149l-278 -84l199 -240l-140 -98l-166 270l-167 -276l-140 96l205 246z" />
<glyph unicode="+" horiz-adv-x="1173" d="M123 651v187h371v372h186v-372h371v-187h-369v-370h-186v370h-373z" />
<glyph unicode="," horiz-adv-x="534" d="M92 -272l119 266l-98 8v260h272v-229l-192 -305h-101z" />
<glyph unicode="-" horiz-adv-x="796" d="M123 434v187h541v-187h-541z" />
<glyph unicode="." horiz-adv-x="512" d="M106 0v287h283v-287h-283z" />
<glyph unicode="/" horiz-adv-x="751" d="M25 -57l516 1538h180l-514 -1538h-182z" />
<glyph unicode="0" horiz-adv-x="1271" d="M86 735q0 370 147 569t404 199t403 -198.5t146 -567.5q0 -367 -144.5 -561t-404.5 -194q-261 0 -406 193.5t-145 559.5zM348 735q0 -289 71 -419t218 -130q148 0 217.5 129t69.5 420q0 296 -71 430.5t-216 134.5t-217 -135.5t-72 -429.5z" />
<glyph unicode="1" horiz-adv-x="845" d="M86 1141v147q187 0 268.5 48t89.5 145h170v-1481h-254v1141h-274z" />
<glyph unicode="2" horiz-adv-x="1280" d="M100 1012q2 103 38 190.5t104 155t174.5 105.5t240.5 38q236 0 375 -119t139 -317q0 -84 -26 -155t-70.5 -121.5t-101.5 -94t-120 -77t-126.5 -64.5t-120.5 -63.5t-101.5 -68t-70.5 -82.5t-26 -103v-23h766v-213h-1043v203q0 84 26.5 156t71.5 124t103.5 97t123 81 t129 70t123 69t103.5 72.5t71.5 86.5t26.5 106q0 101 -70.5 163t-189.5 62q-128 0 -210 -73t-97 -205h-242z" />
<glyph unicode="3" horiz-adv-x="1296" d="M76 442h241q21 -127 102.5 -192.5t205.5 -65.5q149 0 237 65t88 171q0 111 -90.5 175t-234.5 67l-138 4v202l127 6q131 3 215 68t84 160q0 87 -79 144t-209 57q-123 0 -206 -66.5t-89 -200.5h-242q0 147 73.5 254t194.5 159t273 52q248 0 399.5 -101t151.5 -290 q0 -112 -69 -197t-208 -133q142 -39 228 -131.5t86 -232.5q0 -138 -80 -238.5t-213.5 -149.5t-302.5 -48q-251 2 -396 124.5t-149 337.5z" />
<glyph unicode="4" horiz-adv-x="1290" d="M70 350v213l682 918h247v-918h236v-213h-236v-350h-241v350h-688zM303 563h455v608z" />
<glyph unicode="5" horiz-adv-x="1347" d="M84 340l203 106q130 -264 377 -264q145 0 232 80t87 213q0 125 -87 205t-220 80q-85 0 -149.5 -24t-139.5 -93q-11 -6 -15 -6t-16 6l-190 78l67 760h922l-10 -209h-709l-35 -412q150 107 334 107q108 0 200.5 -32t162 -92t109.5 -152.5t40 -207.5q0 -231 -151.5 -367 t-407.5 -136q-211 0 -375 99.5t-229 260.5z" />
<glyph unicode="6" horiz-adv-x="1300" d="M86 723q0 364 158.5 575t443.5 211q132 0 242.5 -47t183 -141t84.5 -219h-231q-28 99 -99 153t-176 54q-176 0 -263.5 -147t-68.5 -408q47 91 144 144.5t213 53.5q225 0 361 -124.5t136 -335.5q0 -221 -148.5 -360.5t-391.5 -139.5q-272 0 -430 196t-158 535zM379 532 q0 -158 79 -253t210 -95q121 0 200.5 83t79.5 214q0 133 -75.5 206t-204.5 73q-108 0 -198.5 -70.5t-90.5 -157.5z" />
<glyph unicode="7" horiz-adv-x="1214" d="M76 1272v209h1075v-209q-188 -245 -355 -637.5t-184 -634.5h-270q14 104 51.5 242t101 308t166 361.5t226.5 360.5h-811z" />
<glyph unicode="8" horiz-adv-x="1323" d="M80 416q0 125 89.5 232t199.5 130q-103 46 -164.5 125.5t-61.5 190.5q0 192 145 300.5t374 108.5q149 0 264.5 -46.5t183.5 -140t68 -222.5q0 -112 -60.5 -191t-163.5 -125q110 -23 199.5 -130t89.5 -232q0 -194 -159 -310t-422 -116q-265 0 -423.5 115.5t-158.5 310.5z M346 420q0 -109 85 -174.5t231 -65.5q145 0 230 65.5t85 174.5q0 111 -85.5 180.5t-229.5 69.5t-230 -70t-86 -180zM395 1100q0 -105 73.5 -163t193.5 -58t193 58t73 163q0 106 -74.5 168.5t-191.5 62.5q-118 0 -192.5 -63t-74.5 -168z" />
<glyph unicode="9" horiz-adv-x="1310" d="M96 395h238q22 -94 94 -149.5t176 -55.5q186 0 284.5 138.5t80.5 425.5q-42 -100 -139 -159.5t-226 -59.5q-227 0 -366.5 127.5t-139.5 343.5q0 223 146 362t389 139q272 0 430 -196t158 -535q0 -383 -159 -584.5t-448 -201.5q-133 0 -246 48.5t-187 141.5t-85 215z M367 1018q0 -131 72.5 -206t199.5 -75q108 0 198.5 71t90.5 159q0 158 -79 253t-210 95q-120 0 -196 -82.5t-76 -214.5z" />
<glyph unicode=":" horiz-adv-x="512" d="M106 6v283h283v-283h-283zM106 741v285h283v-285h-283z" />
<glyph unicode=";" horiz-adv-x="534" d="M106 -305l127 305h-104v285h283v-252l-201 -338h-105zM125 733v289h283v-289h-283z" />
<glyph unicode="&#x3c;" horiz-adv-x="1153" d="M123 598v213l907 358v-221l-627 -243l627 -240v-219z" />
<glyph unicode="=" horiz-adv-x="1173" d="M123 385v186h928v-184zM123 848v186h928v-186h-928z" />
<glyph unicode="&#x3e;" horiz-adv-x="1153" d="M123 246v219l627 240l-627 243v221l907 -358v-213z" />
<glyph unicode="?" horiz-adv-x="1101" d="M33 1184q66 152 197.5 234.5t308.5 82.5q212 0 342.5 -99.5t130.5 -252.5q0 -69 -22 -129.5t-57.5 -106t-78.5 -88.5t-86 -85.5t-78.5 -86.5t-57.5 -102.5t-22 -124.5h-204q0 78 19.5 147t51 120.5t69.5 98t76 87t69.5 80t51 85t19.5 93.5q0 85 -62.5 135.5t-162.5 50.5 q-92 0 -173 -55t-114 -142zM367 0v283h280v-283h-280z" />
<glyph unicode="@" horiz-adv-x="1701" d="M96 522q0 161 58.5 306t162.5 254t258.5 173t335.5 64q109 0 210.5 -23t193.5 -73.5t160 -123.5t108.5 -181.5t40.5 -239.5q0 -228 -110 -372t-281 -144q-151 0 -186 100q-4 8 -7.5 10t-7.5 -0.5t-10 -9.5q-103 -129 -270 -129q-126 0 -211 98t-84 256q0 191 111 326 t286 135q141 0 221 -112q4 -5 10 -3t7 11l12 53h151l-73 -446q-13 -75 4.5 -107.5t62.5 -32.5q87 0 150 95.5t63 259.5q0 109 -31.5 196.5t-84.5 144.5t-125 95.5t-149.5 55t-162.5 16.5q-158 0 -283.5 -52t-203.5 -142.5t-119 -207t-41 -250.5q0 -276 170 -442t473 -166 q87 0 158 18.5t111.5 41t103.5 65.5l82 -109q-88 -70 -213.5 -112.5t-272.5 -42.5q-179 0 -327 58.5t-246 160.5t-151.5 237.5t-53.5 290.5zM643 502q0 -94 39.5 -151.5t112.5 -57.5q88 0 155 76.5t78 179.5q12 108 -36.5 173.5t-125.5 65.5q-96 0 -159.5 -82.5 t-63.5 -203.5z" />
<glyph unicode="A" horiz-adv-x="1462" d="M63 0l533 1481h270l533 -1481h-252l-131 371h-565l-136 -371h-252zM508 594h446l-221 645z" />
<glyph unicode="B" horiz-adv-x="1388" d="M176 0v1481h510q279 0 420 -99t141 -288q0 -119 -60.5 -200t-203.5 -136q301 -73 301 -359q0 -203 -141.5 -301t-435.5 -98h-531zM426 199h283q158 0 239.5 56.5t81.5 164.5q0 112 -83 169.5t-218 57.5h-303v-448zM426 850h303q73 0 133 19t103 68.5t43 123.5 q0 109 -82.5 166t-220.5 57h-279v-434z" />
<glyph unicode="C" horiz-adv-x="1458" d="M117 748q0 351 171.5 552t475.5 201q242 0 404 -135.5t184 -341.5l-262 -6q-24 127 -108 200.5t-224 73.5q-367 0 -367 -547q0 -280 95.5 -418.5t279.5 -138.5q123 0 208.5 78t112.5 205l261 -10q-13 -102 -53.5 -187t-109.5 -152t-175 -104.5t-240 -37.5 q-304 0 -478.5 208.5t-174.5 559.5z" />
<glyph unicode="D" horiz-adv-x="1449" d="M176 0v1481q272 0 399 -2q396 -7 582 -193.5t186 -537.5q0 -362 -195 -555t-587 -193h-385zM430 207h133q94 0 171.5 18t143 58.5t110.5 102.5t70 153.5t25 208.5q0 278 -132 403t-382 125h-139v-1069z" />
<glyph unicode="E" d="M176 0v1481h981l-2 -213h-727v-416h643v-211h-645v-424l745 -2v-215h-995z" />
<glyph unicode="F" horiz-adv-x="1222" d="M176 0v1481h971l-2 -211h-715v-426h631v-209h-631v-635h-254z" />
<glyph unicode="G" horiz-adv-x="1538" d="M117 735q0 353 181 559.5t480 206.5q120 0 227 -39.5t183 -105t122 -152t50 -178.5l-264 -8q-22 117 -109 192.5t-213 75.5q-178 0 -282.5 -135.5t-104.5 -402.5q0 -145 30 -253t85 -171t124.5 -93t155.5 -30q74 0 136.5 27t102 69.5t63 91t28.5 96.5l8 111h-329v176 l591 -4v-768h-178v209q-151 -229 -440 -229q-297 0 -472 204.5t-175 550.5z" />
<glyph unicode="H" horiz-adv-x="1470" d="M176 0v1481h250v-611h623v611h249v-1481h-249v657h-623v-657h-250z" />
<glyph unicode="I" horiz-adv-x="598" d="M176 0v1481h250v-1481h-250z" />
<glyph unicode="J" horiz-adv-x="808" d="M51 18l10 232q7 -2 31.5 -10t40 -12.5t41.5 -8.5t51 -4q99 0 136.5 53.5t37.5 182.5v1030h250v-1098q0 -104 -15.5 -174.5t-54 -124.5t-107.5 -79t-173 -25q-125 0 -248 38z" />
<glyph unicode="K" horiz-adv-x="1433" d="M176 0v1481h260v-719l596 719h291l-467 -574l518 -907h-278l-424 723l-236 -279v-444h-260z" />
<glyph unicode="L" horiz-adv-x="1159" d="M176 0l2 1481h252v-1266h670v-215h-924z" />
<glyph unicode="M" horiz-adv-x="1841" d="M176 0v1481h359l387 -1133l391 1133h356v-1481h-254v1161l-389 -1161h-209l-387 1153v-1153h-254z" />
<glyph unicode="N" horiz-adv-x="1566" d="M176 0v1481h246l723 -1057v1057h250v-1481h-224l-745 1085v-1085h-250z" />
<glyph unicode="O" horiz-adv-x="1556" d="M117 735q0 359 178.5 562.5t484.5 203.5q304 0 483 -203.5t179 -560.5q0 -355 -177.5 -556t-484.5 -201q-309 0 -486 200t-177 555zM389 733q0 -278 102.5 -411.5t290.5 -133.5q387 0 387 545q0 284 -101 421.5t-288 137.5q-186 0 -288.5 -138t-102.5 -421z" />
<glyph unicode="P" horiz-adv-x="1327" d="M176 0v1481h526q247 0 403.5 -126t156.5 -351q0 -218 -143.5 -342.5t-383.5 -124.5h-305v-537h-254zM428 735h301q129 0 212 78.5t83 202.5q0 125 -84.5 196.5t-216.5 71.5h-295v-549z" />
<glyph unicode="Q" horiz-adv-x="1533" d="M86 737q0 358 178.5 561t485.5 203q306 0 483.5 -202.5t177.5 -561.5q0 -438 -266 -633q30 -70 99.5 -109t158.5 -42v-203q-72 0 -129.5 9t-121 33.5t-121.5 75.5t-109 128q-93 -16 -172 -16q-307 0 -485.5 200t-178.5 557zM360 733q0 -545 390 -545q391 0 391 547 q0 282 -100.5 419.5t-290.5 137.5q-390 0 -390 -559z" />
<glyph unicode="R" horiz-adv-x="1409" d="M176 0v1481h602q248 0 373 -113t125 -313q0 -293 -272 -412l280 -643h-258l-256 602h-344v-602h-250zM426 799h297q140 0 219.5 65.5t79.5 182.5q0 114 -72.5 176.5t-195.5 62.5h-328v-487z" />
<glyph unicode="S" horiz-adv-x="1437" d="M111 399l260 9q24 -109 120.5 -169.5t231.5 -60.5q146 0 241 56.5t95 156.5q0 163 -258 221l-279 58q-174 36 -270 132q-97 98 -96 257q0 196 158 318t403 122q127 0 234 -35.5t179 -96t115 -137.5t53 -163l-254 -8q-34 237 -323 237q-128 0 -212.5 -58t-84.5 -155 q0 -74 50 -118t179 -74l273 -60q391 -79 391 -438q0 -177 -163.5 -295t-428.5 -118q-112 0 -215 26t-188.5 76.5t-141.5 132t-69 184.5z" />
<glyph unicode="T" horiz-adv-x="1216" d="M31 1255v226h1155v-226h-445v-1255h-249v1255h-461z" />
<glyph unicode="U" horiz-adv-x="1476" d="M176 555v926h256v-951q0 -169 81.5 -253t231.5 -84q151 0 235.5 84t84.5 253v951h250v-940q0 -273 -137 -417t-433 -144q-299 0 -434 146t-135 429z" />
<glyph unicode="V" horiz-adv-x="1368" d="M25 1481h241l414 -1194l422 1194h239l-516 -1481h-288z" />
<glyph unicode="W" horiz-adv-x="1974" d="M45 1481h248l299 -1069l301 1069h186l303 -1069l301 1069h246l-434 -1481h-211l-299 1051l-303 -1051h-205z" />
<glyph unicode="X" horiz-adv-x="1396" d="M45 0l498 754l-482 727h314l325 -516l326 516h270l-465 -697l521 -784h-314l-362 565l-359 -565h-272z" />
<glyph unicode="Y" d="M14 1481h273l364 -637l359 637h272l-508 -854v-627h-250v627z" />
<glyph unicode="Z" horiz-adv-x="1331" d="M102 0v127l779 1143h-736v211h1090v-121l-789 -1147h783v-213h-1127z" />
<glyph unicode="[" horiz-adv-x="659" d="M166 1481h430v-148h-219l-2 -1515h221v-148h-428z" />
<glyph unicode="\" horiz-adv-x="751" d="M20 1481h181l516 -1538h-182z" />
<glyph unicode="]" horiz-adv-x="677" d="M37 -182h219v1515h-219v148h428v-1811h-428v148z" />
<glyph unicode="^" horiz-adv-x="980" d="M80 258l313 748q18 45 52.5 63t70 1.5t55.5 -62.5l314 -752h-178l-226 557l-223 -555h-178z" />
<glyph unicode="_" horiz-adv-x="1099" d="M123 -80l848 2v-186h-848v184z" />
<glyph unicode="`" horiz-adv-x="626" d="M23 1329l59 172l508 -205l-37 -112z" />
<glyph unicode="a" horiz-adv-x="1134" d="M80 295q0 177 128 265t402 91l158 4v72q0 87 -54 133q-52 45 -143 45h-8q-82 0 -145 -38.5t-84 -114.5h-211q7 151 130 239t320 88q219 0 327 -89.5t108 -248.5v-741h-209l-21 184q-56 -113 -140 -158.5t-204 -45.5q-158 0 -256 84t-98 231zM319 319q0 -78 54.5 -123.5 t140.5 -45.5q93 0 173.5 62t80.5 138v168l-129 -2q-320 -3 -320 -197z" />
<glyph unicode="b" horiz-adv-x="1224" d="M145 0v1522h250v-641q43 82 124.5 140t203.5 58q137 0 233.5 -70.5t142.5 -191.5t46 -282q0 -258 -115 -406.5t-330 -148.5q-72 0 -133.5 19t-103 50t-68.5 63.5t-43 67.5l-24 -180h-183zM395 459q2 -133 69 -214t179 -81q116 0 182 90.5t66 282.5q0 356 -248 356 q-57 0 -101.5 -18t-71 -46t-43.5 -67t-24 -75t-8 -75v-153z" />
<glyph unicode="c" horiz-adv-x="1093" d="M80 524q0 247 138 401t362 154q180 0 298.5 -105.5t135.5 -277.5l-211 -2q-21 87 -77 140t-140 53q-125 0 -199 -96.5t-74 -262.5q0 -168 75 -267t200 -99q86 0 143.5 55t73.5 133h207q-19 -168 -137.5 -269t-294.5 -101q-223 0 -361.5 150.5t-138.5 393.5z" />
<glyph unicode="d" horiz-adv-x="1216" d="M80 535q0 161 46 282t142.5 191.5t233.5 70.5q118 0 204 -51t125 -119v613h248v-1522h-182l-29 217q-14 -43 -37 -80t-62 -75t-102 -60t-143 -22q-215 0 -329.5 148.5t-114.5 406.5zM326 537q0 -191 67.5 -282t184.5 -91q112 0 181.5 74.5t71.5 191.5v205q-2 44 -16 86.5 t-42 82.5t-78.5 64.5t-116.5 24.5q-121 0 -186.5 -87.5t-65.5 -268.5z" />
<glyph unicode="e" horiz-adv-x="1138" d="M80 518q0 164 58.5 290t173 198.5t268.5 72.5q229 0 353 -144t124 -388v-76h-729q0 -139 67.5 -222t192.5 -83q183 0 237 158h228q-22 -109 -91.5 -188.5t-164 -117.5t-203.5 -38q-231 0 -372.5 145t-141.5 393zM328 627h495q0 121 -62.5 196.5t-182.5 75.5 q-116 0 -183 -81.5t-67 -190.5z" />
<glyph unicode="f" horiz-adv-x="804" d="M53 883v176h209v158q0 128 71 196t204 68h223l2 -170h-150q-59 0 -81.5 -30t-22.5 -99v-123h244v-176h-240v-883h-250v883h-209z" />
<glyph unicode="g" horiz-adv-x="1267" d="M53 -82q0 41 18 76.5t47.5 58.5t55.5 38.5t53 27t29 12.5q-2 1 -17.5 9.5t-22.5 13t-22 15t-23 20.5t-17.5 23.5t-14 30.5t-4.5 36q0 56 52.5 99.5t152.5 63.5q-207 100 -207 299q0 156 134 245t349 89q99 0 170.5 -22.5t137.5 -65.5q29 13 143.5 59.5t146.5 59.5v-205 l-184 -33q29 -72 29 -125q0 -69 -29 -130t-85 -109.5t-146 -76.5t-203 -28q-40 0 -86 4q-143 -5 -143 -57q0 -25 41 -35t151 -18q103 -4 225 -12q186 -12 277.5 -90t91.5 -205q0 -155 -142 -245.5t-403 -90.5q-269 0 -412 72.5t-143 195.5zM299 -53q0 -150 350 -150 q139 0 201.5 35.5t62.5 108.5q0 120 -176 131l-266 18h-9q-62 0 -111 -40q-52 -43 -52 -103zM383 735q0 -88 58.5 -138t162.5 -50q105 0 161 49t56 139q0 93 -59 147t-158 54q-103 0 -162 -54.5t-59 -146.5z" />
<glyph unicode="h" horiz-adv-x="1212" d="M145 0v1522h248v-607q98 154 316 154q156 0 262 -91t106 -235v-743h-248v705q0 76 -57 121.5t-145 45.5q-97 0 -164.5 -47t-67.5 -131v-694h-250z" />
<glyph unicode="i" horiz-adv-x="552" d="M150 1251v236h260v-236h-260zM156 0v1059h250v-1059h-250z" />
<glyph unicode="j" horiz-adv-x="573" d="M-39 -147l92 8q66 6 92.5 35t26.5 92v1071h250v-1077q0 -165 -77 -243.5t-251 -78.5q-50 0 -83.5 7t-41.5 13l-8 7v166zM168 1251v236h260v-236h-260z" />
<glyph unicode="k" horiz-adv-x="1181" d="M145 0v1522h250v-942l439 479h274l-383 -414l401 -645h-254l-305 492l-172 -181v-311h-250z" />
<glyph unicode="l" horiz-adv-x="628" d="M145 287v1235h246v-1209q0 -138 119 -149l53 -2v-156q-58 -22 -110 -22q-79 0 -137 17.5t-90 44.5t-51 69.5t-24.5 81t-5.5 90.5z" />
<glyph unicode="m" horiz-adv-x="1820" d="M145 0v1059h244v-141q112 161 326 161q93 0 177 -40.5t126 -120.5q51 74 138 117.5t183 43.5q49 0 96 -11t93.5 -38t80.5 -67.5t55.5 -103.5t21.5 -142v-717h-250v692q0 107 -53.5 154t-135.5 47q-95 0 -152 -51.5t-57 -159.5v-682h-247v731q0 74 -59 118t-132 44 q-79 0 -142 -46t-63 -130v-717h-250z" />
<glyph unicode="n" horiz-adv-x="1214" d="M145 0v1059h246v-141q110 153 318 153q155 0 262.5 -101t107.5 -270v-700h-250v674q0 93 -55.5 145.5t-144.5 52.5q-97 0 -165.5 -46.5t-68.5 -129.5v-696h-250z" />
<glyph unicode="o" horiz-adv-x="1159" d="M80 522q0 249 137.5 403t364.5 154q229 0 363 -154.5t134 -400.5q0 -243 -134.5 -393.5t-364.5 -150.5q-231 0 -365.5 149.5t-134.5 392.5zM326 532q0 -102 24.5 -181t84 -131t147.5 -52q87 0 145.5 52t82.5 131t24 181q0 76 -14 139t-43.5 113.5t-79 78.5t-115.5 28 q-88 0 -147.5 -50.5t-84 -129t-24.5 -179.5z" />
<glyph unicode="p" horiz-adv-x="1224" d="M145 -330v1389h250v-139q51 67 130.5 113t187.5 46q91 0 168 -33.5t136 -98t92.5 -169t33.5 -237.5q0 -270 -131 -415.5t-334 -145.5q-180 0 -283 170v-480h-250zM395 338q34 -78 98.5 -126t139.5 -48q120 0 198 98t78 275q0 171 -78.5 263.5t-191.5 92.5 q-99 0 -171.5 -72.5t-72.5 -154.5v-328z" />
<glyph unicode="q" horiz-adv-x="1214" d="M80 541q0 133 34 237.5t93 169t136.5 98t168.5 33.5q56 0 106 -12.5t92 -37t66 -42.5t55 -45v117h248v-1389h-250v475q-108 -165 -301 -165q-200 0 -324 144.5t-124 416.5zM334 541q0 -180 75.5 -284.5t194.5 -104.5q73 0 125 44t76 112.5t24 154.5v166q0 120 -64.5 198 t-168.5 78q-113 0 -187.5 -92.5t-74.5 -271.5z" />
<glyph unicode="r" horiz-adv-x="804" d="M145 0v1059h240v-230q41 110 139 180t240 70v-237q-29 2 -56 2q-153 0 -227 -54q-86 -62 -86 -174v-616h-250z" />
<glyph unicode="s" horiz-adv-x="1069" d="M86 322h221q19 -85 86.5 -124.5t151.5 -39.5q98 0 155.5 34.5t57.5 98.5q0 95 -146 125l-194 47q-143 31 -220 100.5t-77 193.5q1 149 115 235q116 88 311 87q187 0 299 -84.5t112 -232.5h-213q-12 67 -66 103t-138 36q-52 0 -94 -10.5t-73.5 -41.5t-31.5 -79 q0 -46 41.5 -74t132.5 -47l189 -47q62 -15 111 -42t78 -57.5t48 -66.5t26 -68t7 -65q0 -102 -58.5 -176.5t-154.5 -110.5t-217 -36q-177 0 -305.5 87t-153.5 255z" />
<glyph unicode="t" horiz-adv-x="800" d="M45 883v176h180l41 315h201v-313h238v-178h-238l2 -602q0 -67 25 -88t86 -21h129v-158q-49 -22 -172 -22q-93 0 -156 18.5t-98.5 55.5t-50.5 85t-15 115v617h-172z" />
<glyph unicode="u" horiz-adv-x="1210" d="M141 334v727h250v-699q0 -98 62.5 -147t148.5 -49q94 0 157.5 54t63.5 151v690h252l-6 -1061h-190l-29 207q-17 -80 -69.5 -133.5t-113.5 -73.5t-130 -20q-69 1 -136 22t-126.5 62t-96.5 111t-37 159z" />
<glyph unicode="v" horiz-adv-x="1054" d="M39 1059h229l252 -742h15l251 742h230l-389 -1059h-197z" />
<glyph unicode="w" horiz-adv-x="1613" d="M43 1059h225l221 -729h11l215 729h182l221 -727h10l213 727h228l-334 -1059h-215l-217 705l-213 -705h-209z" />
<glyph unicode="x" horiz-adv-x="1181" d="M49 0l408 551l-375 508h266l244 -332l246 332h264l-377 -508l408 -551h-265l-276 377l-279 -377h-264z" />
<glyph unicode="y" horiz-adv-x="1132" d="M39 1059h248l280 -748l283 748h244l-439 -1098q-70 -170 -158 -234.5t-216 -64.5q-59 0 -105 8t-62 16l-16 7v160l109 -3h21q35 0 65 5q38 7 59 17.5t37.5 29t22 29.5t12.5 28l29 76z" />
<glyph unicode="z" horiz-adv-x="1062" d="M80 0v137l575 760h-530v162h840v-135l-576 -760h584v-164h-893z" />
<glyph unicode="{" horiz-adv-x="735" d="M20 514v135q232 0 232 195v409q0 106 85.5 167t207.5 61h127v-148h-82q-77 0 -102 -26t-25 -80v-418q-3 -102 -64 -156t-145 -63q-8 -1 -11.5 -4t-0.5 -6.5t12 -4.5q86 -7 146 -59.5t63 -165.5v-424q0 -58 27.5 -83t99.5 -25h82v-148h-123q-127 0 -212 62t-85 170v428 q0 78 -58.5 131t-173.5 53z" />
<glyph unicode="|" horiz-adv-x="536" d="M176 1692h189v-2022h-187z" />
<glyph unicode="}" horiz-adv-x="737" d="M35 -182h80q73 0 101 24.5t28 83.5v424q1 59 19.5 103.5t50 69t66 37t73.5 15.5q9 1 12 4.5t-0.5 6.5t-11.5 4q-39 4 -74 18t-66 39.5t-49.5 67t-19.5 94.5v418q0 54 -25 80t-102 26h-82v148h127q122 0 206.5 -61t84.5 -167v-409q0 -195 231 -195v-135q-113 0 -172 -53 t-59 -131v-428q0 -109 -84 -170.5t-211 -61.5h-123v148z" />
<glyph unicode="~" horiz-adv-x="1212" d="M117 723q82 82 148.5 123t154.5 41q54 0 108 -18.5t91.5 -41t86.5 -41t93 -18.5q125 0 213 131l71 -131q-45 -76 -118.5 -119t-161.5 -43q-56 0 -110.5 18.5t-92 41t-86.5 41t-94 18.5q-70 0 -123 -35t-109 -98z" />
<glyph unicode="&#xa1;" horiz-adv-x="544" d="M119 -330l69 967h160l66 -967h-295zM125 776v283h281v-283h-281z" />
<glyph unicode="&#xa2;" horiz-adv-x="1132" d="M102 752q0 222 113 370.5t303 177.5v181h172v-183q146 -25 238.5 -125t107.5 -249l-213 -2q-21 87 -77 139.5t-140 52.5q-125 0 -197.5 -95.5t-72.5 -262.5q0 -169 74 -268t200 -99q86 0 143 55.5t72 133.5h207q-15 -145 -107.5 -242.5t-234.5 -120.5v-215h-172v213 q-188 28 -302 174t-114 365z" />
<glyph unicode="&#xa3;" horiz-adv-x="1294" d="M37 0v209h74q81 0 129.5 60.5t48.5 183.5q0 80 -23 245h-207v146h179l-25 178q-18 111 11 203t93 151.5t151.5 92t186.5 32.5q156 0 277 -73t174 -197l-217 -72q-35 73 -80 106t-117 33q-89 0 -146 -52.5t-57 -145.5t41 -254h314v-146h-293q14 -138 2 -225 q-7 -98 -38 -157t-81 -107h311q102 0 157 37t89 129l213 -49q-100 -328 -440 -328h-727z" />
<glyph unicode="&#xa4;" horiz-adv-x="1148" d="M90 383l129 127q-72 110 -72 233q0 125 62 220q9 16 -2 30l-117 117l111 113l131 -133q106 73 233 73q123 0 226 -65q13 -6 24 2l111 114l110 -114l-125 -121q74 -110 74 -234q0 -135 -65 -223q-7 -11 0 -18l116 -113l-108 -112l-123 122q-112 -75 -236 -75 q-122 0 -223 63q-20 10 -31 -4l-116 -117zM322 745q0 -100 71.5 -173.5t175.5 -73.5t175 73.5t71 173.5q0 99 -71 173.5t-175 74.5t-175.5 -74.5t-71.5 -173.5z" />
<glyph unicode="&#xa5;" horiz-adv-x="1304" d="M-2 1481h324l360 -631l360 631h265l-476 -776h279v-144h-309v-170h309v-141h-309v-250h-285v250h-307v141h307v168h-307v143h256z" />
<glyph unicode="&#xa6;" horiz-adv-x="536" d="M176 500h189v-830h-187zM176 1692h189v-830h-187z" />
<glyph unicode="&#xa7;" horiz-adv-x="1030" d="M66 84l155 80q108 -158 299 -158q91 0 147 33t56 94q0 49 -39.5 87.5t-138.5 76.5l-166 63q-154 59 -222.5 133t-68.5 183q0 91 51.5 159.5t139.5 106.5q-100 57 -140.5 118.5t-40.5 137.5q0 131 110.5 217t291.5 86q141 0 251.5 -63t161.5 -154l-157 -80 q-116 137 -248 137q-86 0 -135 -32t-49 -88q0 -79 135 -134l164 -63q168 -66 241.5 -144t73.5 -192q0 -168 -174 -266q96 -54 140 -114.5t44 -143.5q0 -141 -114 -229.5t-312 -88.5q-159 0 -282 67t-174 171zM295 709q0 -49 34.5 -82.5t133.5 -73.5l110 -45q67 -6 113 37.5 t43 107.5q-3 55 -39.5 94t-126.5 74l-100 39q-73 -6 -120.5 -50t-47.5 -101z" />
<glyph unicode="&#xa8;" horiz-adv-x="659" d="M2 1251v236h258v-236h-258zM399 1251v236h258v-236h-258z" />
<glyph unicode="&#xa9;" horiz-adv-x="1687" d="M78 741q0 154 60 294.5t162 242.5t242.5 162.5t295.5 60.5t296 -60.5t242.5 -162.5t162 -242.5t60.5 -294.5q0 -156 -60.5 -297t-162.5 -242.5t-242.5 -161.5t-295.5 -60t-295.5 60t-242.5 161.5t-162 242.5t-60 297zM240 741q0 -137 45 -252.5t124.5 -194t190 -122 t238.5 -43.5q170 0 306 74.5t215 214.5t79 323q0 181 -79 322t-215.5 217t-305.5 76q-128 0 -238.5 -44.5t-190 -124t-124.5 -195t-45 -251.5zM442 743q0 189 113.5 308.5t288.5 119.5q129 0 217.5 -71.5t130.5 -175.5l-176 -29q-63 137 -164 137q-93 0 -148 -74.5 t-55 -209.5q0 -140 57 -214.5t154 -74.5q128 0 205 147l129 -37q-18 -44 -46 -84.5t-69.5 -79.5t-102.5 -62.5t-132 -23.5q-178 0 -290 118t-112 306z" />
<glyph unicode="&#xaa;" horiz-adv-x="823" d="M80 999q0 98 90.5 158.5t251.5 67.5l94 6v47q0 108 -127 108q-50 0 -85.5 -19.5t-63.5 -70.5l-144 35q40 84 110.5 126t190.5 42q277 -3 277 -217v-250q0 -86 8 -141l14 -66h-166l-16 78q-56 -48 -104.5 -69t-110.5 -21q-104 0 -161.5 49.5t-57.5 136.5zM246 1008 q0 -39 30.5 -63.5t83.5 -24.5q66 0 115 43q41 35 41 69v105l-78 -4q-93 -6 -142.5 -38.5t-49.5 -86.5z" />
<glyph unicode="&#xab;" horiz-adv-x="980" d="M94 514l254 393h137l-186 -393l184 -377h-135zM471 514l254 393h137l-184 -393l182 -377h-135z" />
<glyph unicode="&#xac;" horiz-adv-x="1173" d="M123 651v187h928v-488h-203l-2 301h-723z" />
<glyph unicode="&#xad;" horiz-adv-x="796" d="M123 434v187h541v-187h-541z" />
<glyph unicode="&#xae;" horiz-adv-x="1118" d="M78 1024q0 198 139 337.5t338 139.5q97 0 184.5 -37.5t151.5 -101.5t101.5 -152.5t37.5 -185.5t-37.5 -185t-101.5 -151.5t-151.5 -101t-184.5 -37.5q-199 0 -338 138.5t-139 336.5zM195 1024q0 -167 98.5 -267t261.5 -100q161 0 259.5 100.5t98.5 266.5q0 167 -99 268 t-259 101q-163 0 -261.5 -101t-98.5 -268zM367 786v471h217q83 0 128.5 -31.5t45.5 -90.5q0 -92 -99 -127l93 -222h-113l-76 211h-92v-211h-104zM471 1073h107q31 0 51 13.5t20 39.5q0 56 -78 56h-100v-109z" />
<glyph unicode="&#xaf;" horiz-adv-x="743" d="M31 1298v164h671v-164h-671z" />
<glyph unicode="&#xb0;" horiz-adv-x="960" d="M141 1378q0 146 94.5 240t239.5 94q143 0 237.5 -94t94.5 -240q0 -145 -94.5 -238t-237.5 -93q-145 0 -239.5 92.5t-94.5 238.5zM295 1376q2 -83 49.5 -133.5t128.5 -50.5t128.5 50.5t47.5 133.5t-48 134t-130 51q-79 0 -128.5 -51.5t-47.5 -133.5z" />
<glyph unicode="&#xb1;" horiz-adv-x="1173" d="M123 94v185l928 2v-187h-928zM123 817v187h371v372h186v-372h371v-185h-371v-373h-184v371h-373z" />
<glyph unicode="&#xb2;" horiz-adv-x="770" d="M45 1423q2 134 93 221t257 87q148 0 236 -75.5t88 -199.5q0 -67 -26.5 -121t-69 -89.5t-94 -64.5t-102.5 -54t-93.5 -50.5t-69 -61.5t-26.5 -81v-12h483v-136h-658v127q0 67 27 122t70.5 92t96 68t105 58t96 54.5t70.5 65.5t27 83q0 63 -44.5 102t-119.5 39 q-80 0 -132 -45.5t-62 -128.5h-152z" />
<glyph unicode="&#xb3;" horiz-adv-x="823" d="M51 1065h154q12 -81 63 -121.5t129 -40.5q93 0 149 41t56 107q0 70 -57 109.5t-148 41.5l-88 2v129l80 2q84 3 136.5 44t52.5 100q0 55 -49.5 91t-131.5 36q-77 0 -129.5 -41.5t-56.5 -126.5h-152q0 139 96 216t244 77q156 0 251 -63.5t95 -182.5q0 -148 -174 -207 q90 -25 143.5 -83t53.5 -148q0 -128 -105.5 -201.5t-267.5 -71.5q-158 0 -249.5 78t-94.5 213z" />
<glyph unicode="&#xb4;" horiz-adv-x="626" d="M25 1296l512 205l57 -172l-531 -145z" />
<glyph unicode="&#xb5;" horiz-adv-x="1228" d="M141 -338v1423h256v-704q0 -68 55 -115t134 -47q72 0 137 42t113 116v708h258l-4 -1085h-248v168q-73 -67 -129.5 -98t-120.5 -37q-115 -13 -195 39v-410h-256z" />
<glyph unicode="&#xb6;" horiz-adv-x="1193" d="M80 1038q0 90 30.5 169t88.5 140.5t149.5 97.5t204.5 36h506v-146h-127v-1505h-158v1505h-110v-1505h-158v780q-189 11 -307.5 127t-118.5 301z" />
<glyph unicode="&#xb7;" horiz-adv-x="503" d="M106 614v265h275v-265h-275z" />
<glyph unicode="&#xb8;" horiz-adv-x="520" d="M27 -375l36 90q74 -49 152 -49q104 0 104 68q0 44 -39 65.5t-128 22.5q-13 0 -16.5 3t1.5 13l74 172h117l-45 -121q101 -4 148.5 -49t47.5 -106q0 -75 -68 -119.5t-167 -44.5q-132 0 -217 55z" />
<glyph unicode="&#xb9;" horiz-adv-x="620" d="M10 1495v94q119 0 170 30t56 91h106v-932h-158v717h-174z" />
<glyph unicode="&#xba;" horiz-adv-x="817" d="M80 1155q0 155 91.5 250.5t236.5 95.5q149 0 239 -96t90 -250q0 -151 -89.5 -245.5t-239.5 -94.5q-149 0 -238.5 94.5t-89.5 245.5zM252 1159q0 -111 39.5 -170t116.5 -59q157 0 157 229q0 225 -157 225q-77 0 -116.5 -57.5t-39.5 -167.5z" />
<glyph unicode="&#xbb;" horiz-adv-x="980" d="M109 907h135l254 -393l-254 -377h-133l182 377zM485 907h138l251 -393l-253 -377h-134l183 377z" />
<glyph unicode="&#xbc;" horiz-adv-x="1888" d="M10 1282v94q119 0 170 30t56 91h106v-932h-158v717h-174zM301 -6l999 1503h150l-995 -1505zM1069 221v133l430 578h156v-578h147v-133h-147v-221h-152v221h-434zM1217 354h284v383z" />
<glyph unicode="&#xbd;" horiz-adv-x="1941" d="M10 1282v94q119 0 170 30t56 91h106v-932h-158v717h-174zM301 -6l999 1503h150l-995 -1505zM1200 637q2 134 93 220.5t257 86.5q148 0 236 -75t88 -199q0 -67 -26.5 -121t-69 -89.5t-93.5 -64.5t-102.5 -54t-94 -51t-69 -62t-26.5 -81v-12h483v-135h-657v127q0 67 27 122 t70.5 92t95.5 68t104.5 58t96 54.5t70.5 65.5t27 83q0 63 -44.5 102t-119.5 39q-80 0 -132 -45.5t-62 -128.5h-152z" />
<glyph unicode="&#xbe;" horiz-adv-x="2088" d="M51 850h154q12 -81 63 -121.5t129 -40.5q93 0 149 41t56 107q0 70 -57 109.5t-148 41.5l-88 2v129l80 2q84 3 136.5 44t52.5 100q0 55 -49.5 91t-131.5 36q-77 0 -129.5 -41.5t-56.5 -126.5h-152q0 139 96 216t244 77q156 0 251 -63.5t95 -182.5q0 -148 -174 -207 q90 -25 143.5 -83.5t53.5 -148.5q0 -128 -105.5 -201t-267.5 -71q-158 0 -249.5 78t-94.5 213zM504 -6l999 1503h150l-996 -1505zM1270 221v133l430 578h155v-578h148v-133h-148v-221h-151v221h-434zM1417 354h285v383z" />
<glyph unicode="&#xbf;" horiz-adv-x="1089" d="M68 4q0 67 22 123.5t57 96t77.5 75.5t85.5 70.5t78 72t57 89t22 112.5h207q0 -73 -19.5 -135.5t-51 -106.5t-69.5 -83t-76.5 -73t-70 -67t-51 -74.5t-19.5 -87.5q0 -83 62.5 -133.5t161.5 -50.5q91 0 172.5 55t115.5 138l215 -56q-65 -153 -196 -236t-309 -83 q-223 0 -347 99t-124 255zM430 776v283h283v-283h-283z" />
<glyph unicode="&#xc0;" horiz-adv-x="1462" d="M63 0l533 1481h270l533 -1481h-252l-131 371h-565l-136 -371h-252zM430 1751l59 172l508 -205l-36 -112zM508 594h446l-221 645z" />
<glyph unicode="&#xc1;" horiz-adv-x="1462" d="M63 0l533 1481h270l533 -1481h-252l-131 371h-565l-136 -371h-252zM449 1718l512 205l57 -172l-531 -145zM508 594h446l-221 645z" />
<glyph unicode="&#xc2;" horiz-adv-x="1462" d="M63 0l533 1481h270l533 -1481h-252l-131 371h-565l-136 -371h-252zM385 1657l264 256h174l258 -256h-209l-137 145l-153 -145h-197zM508 594h446l-221 645z" />
<glyph unicode="&#xc3;" horiz-adv-x="1462" d="M63 0l533 1481h270l533 -1481h-252l-131 371h-565l-136 -371h-252zM403 1815q41 41 83.5 63.5t101.5 22.5q57 0 150 -30t136 -30q73 0 158 64l37 -140q-83 -67 -195 -67q-57 0 -143 27.5t-135 27.5q-47 0 -79 -14.5t-73 -46.5zM508 594h446l-221 645z" />
<glyph unicode="&#xc4;" horiz-adv-x="1462" d="M63 0l533 1481h270l533 -1481h-252l-131 371h-565l-136 -371h-252zM401 1669v236h258v-236h-258zM508 594h446l-221 645zM799 1669v236h258v-236h-258z" />
<glyph unicode="&#xc5;" horiz-adv-x="1462" d="M63 0l533 1481h270l533 -1481h-252l-131 371h-565l-136 -371h-252zM508 594h446l-221 645zM514 1815q0 87 63.5 147.5t153.5 60.5q92 0 155.5 -62t63.5 -151q0 -92 -63.5 -154.5t-155.5 -62.5q-91 0 -154 64t-63 158zM623 1808q0 -41 32.5 -73.5t73.5 -32.5q44 0 75.5 32 t31.5 74q0 45 -31 75t-76 30q-42 0 -74 -30t-32 -75z" />
<glyph unicode="&#xc6;" horiz-adv-x="2082" d="M0 0l805 1481h1126v-211h-702v-420h497v-207h-497v-432h727v-211h-1012v375h-489l-203 -375h-252zM549 594h395v717z" />
<glyph unicode="&#xc7;" horiz-adv-x="1458" d="M117 748q0 351 171.5 552t475.5 201q242 0 404 -135.5t184 -341.5l-262 -6q-24 127 -108 200.5t-224 73.5q-367 0 -367 -547q0 -280 95.5 -418.5t279.5 -138.5q123 0 208.5 78t112.5 205l261 -10q-12 -96 -49 -178t-99.5 -147.5t-158.5 -106t-216 -47.5l-34 -93 q101 -4 148.5 -49t47.5 -106q0 -75 -68 -119.5t-167 -44.5q-132 0 -217 55l36 90q74 -49 152 -49q104 0 104 68q0 44 -39.5 65.5t-128.5 22.5q-13 0 -16 3t2 13l62 144q-276 23 -433 229t-157 537z" />
<glyph unicode="&#xc8;" d="M176 0v1481h981l-2 -213h-727v-416h643v-211h-645v-424l745 -2v-215h-995zM367 1751l59 172l508 -205l-37 -112z" />
<glyph unicode="&#xc9;" d="M176 0v1481h981l-2 -213h-727v-416h643v-211h-645v-424l745 -2v-215h-995zM385 1718l512 205l57 -172l-530 -145z" />
<glyph unicode="&#xca;" d="M176 0v1481h981l-2 -213h-727v-416h643v-211h-645v-424l745 -2v-215h-995zM319 1657l265 256h174l258 -256h-209l-137 145l-154 -145h-197z" />
<glyph unicode="&#xcb;" d="M176 0v1481h981l-2 -213h-727v-416h643v-211h-645v-424l745 -2v-215h-995zM338 1669v236h258v-236h-258zM735 1669v236h258v-236h-258z" />
<glyph unicode="&#xcc;" horiz-adv-x="598" d="M0 1751l59 172l508 -205l-37 -112zM176 0v1481h250v-1481h-250z" />
<glyph unicode="&#xcd;" horiz-adv-x="598" d="M18 1718l512 205l58 -172l-531 -145zM176 0v1481h250v-1481h-250z" />
<glyph unicode="&#xce;" horiz-adv-x="598" d="M-47 1657l264 256h174l258 -256h-209l-137 145l-153 -145h-197zM176 0v1481h250v-1481h-250z" />
<glyph unicode="&#xcf;" horiz-adv-x="598" d="M-29 1669v236h258v-236h-258zM176 0v1481h250v-1481h-250zM369 1669v236h258v-236h-258z" />
<glyph unicode="&#xd0;" horiz-adv-x="1492" d="M72 641v188h149v652q273 0 400 -2q396 -7 582 -193.5t186 -537.5q0 -361 -195.5 -554.5t-587.5 -193.5h-385v641h-149zM475 207h133q94 0 171.5 18t143 58.5t110.5 102.5t70 153.5t25 208.5q0 278 -132 403t-382 125h-139v-447h318v-188h-318v-434z" />
<glyph unicode="&#xd1;" horiz-adv-x="1566" d="M176 0v1481h246l723 -1057v1057h250v-1481h-224l-745 1085v-1085h-250zM457 1815q42 42 83.5 64t100.5 22q57 0 150.5 -30t136.5 -30q46 0 81.5 17t75.5 47l37 -140q-83 -67 -194 -67q-57 0 -143.5 27.5t-135.5 27.5q-47 0 -78.5 -14.5t-72.5 -46.5z" />
<glyph unicode="&#xd2;" horiz-adv-x="1556" d="M117 735q0 359 178.5 562.5t484.5 203.5q304 0 483 -203.5t179 -560.5q0 -355 -177.5 -556t-484.5 -201q-309 0 -486 200t-177 555zM389 733q0 -278 102.5 -411.5t290.5 -133.5q387 0 387 545q0 284 -101 421.5t-288 137.5q-186 0 -288.5 -138t-102.5 -421zM479 1751 l60 172l508 -205l-37 -112z" />
<glyph unicode="&#xd3;" horiz-adv-x="1556" d="M117 735q0 359 178.5 562.5t484.5 203.5q304 0 483 -203.5t179 -560.5q0 -355 -177.5 -556t-484.5 -201q-309 0 -486 200t-177 555zM389 733q0 -278 102.5 -411.5t290.5 -133.5q387 0 387 545q0 284 -101 421.5t-288 137.5q-186 0 -288.5 -138t-102.5 -421zM498 1718 l512 205l57 -172l-530 -145z" />
<glyph unicode="&#xd4;" horiz-adv-x="1556" d="M117 735q0 359 178.5 562.5t484.5 203.5q304 0 483 -203.5t179 -560.5q0 -355 -177.5 -556t-484.5 -201q-309 0 -486 200t-177 555zM389 733q0 -278 102.5 -411.5t290.5 -133.5q387 0 387 545q0 284 -101 421.5t-288 137.5q-186 0 -288.5 -138t-102.5 -421zM430 1657 l264 256h174l258 -256h-208l-138 145l-153 -145h-197z" />
<glyph unicode="&#xd5;" horiz-adv-x="1556" d="M117 735q0 359 178.5 562.5t484.5 203.5q304 0 483 -203.5t179 -560.5q0 -355 -177.5 -556t-484.5 -201q-309 0 -486 200t-177 555zM389 733q0 -278 102.5 -411.5t290.5 -133.5q387 0 387 545q0 284 -101 421.5t-288 137.5q-186 0 -288.5 -138t-102.5 -421zM453 1815 q42 42 83.5 64t100.5 22q57 0 150.5 -30t136.5 -30q46 0 81.5 17t75.5 47l37 -140q-83 -67 -194 -67q-57 0 -143.5 27.5t-135.5 27.5q-47 0 -78.5 -14.5t-72.5 -46.5z" />
<glyph unicode="&#xd6;" horiz-adv-x="1556" d="M117 735q0 359 178.5 562.5t484.5 203.5q304 0 483 -203.5t179 -560.5q0 -355 -177.5 -556t-484.5 -201q-309 0 -486 200t-177 555zM389 733q0 -278 102.5 -411.5t290.5 -133.5q387 0 387 545q0 284 -101 421.5t-288 137.5q-186 0 -288.5 -138t-102.5 -421zM451 1669v236 h258v-236h-258zM848 1669v236h258v-236h-258z" />
<glyph unicode="&#xd7;" horiz-adv-x="1146" d="M123 1063l129 131l319 -317l320 319l133 -131l-319 -320l317 -317l-133 -133l-318 317l-317 -317l-129 133l315 315z" />
<glyph unicode="&#xd8;" horiz-adv-x="1564" d="M49 92l174 182q-108 178 -108 461q0 359 178.5 562.5t484.5 203.5q276 0 449 -170l166 176l116 -116l-178 -193q109 -188 109 -461q0 -354 -178 -555.5t-484 -201.5q-277 0 -446 161l-164 -170zM422 831q-9 -170 27 -331l604 657q-90 141 -275 141q-167 0 -255.5 -115 t-100.5 -352zM502 315q91 -131 276 -131q164 0 250 106.5t98 327.5q12 183 -22 355z" />
<glyph unicode="&#xd9;" horiz-adv-x="1476" d="M176 555v926h256v-951q0 -169 81.5 -253t231.5 -84q151 0 235.5 84t84.5 253v951h250v-940q0 -273 -137 -417t-433 -144q-299 0 -434 146t-135 429zM446 1751l60 172l508 -205l-37 -112z" />
<glyph unicode="&#xda;" horiz-adv-x="1476" d="M176 555v926h256v-951q0 -169 81.5 -253t231.5 -84q151 0 235.5 84t84.5 253v951h250v-940q0 -273 -137 -417t-433 -144q-299 0 -434 146t-135 429zM465 1718l512 205l57 -172l-530 -145z" />
<glyph unicode="&#xdb;" horiz-adv-x="1476" d="M176 555v926h256v-951q0 -169 81.5 -253t231.5 -84q151 0 235.5 84t84.5 253v951h250v-940q0 -273 -137 -417t-433 -144q-299 0 -434 146t-135 429zM397 1657l265 256h174l258 -256h-209l-137 145l-154 -145h-197z" />
<glyph unicode="&#xdc;" horiz-adv-x="1476" d="M176 555v926h256v-951q0 -169 81.5 -253t231.5 -84q151 0 235.5 84t84.5 253v951h250v-940q0 -273 -137 -417t-433 -144q-299 0 -434 146t-135 429zM418 1669v236h258v-236h-258zM815 1669v236h258v-236h-258z" />
<glyph unicode="&#xdd;" d="M14 1481h273l364 -637l359 637h272l-508 -854v-627h-250v627zM391 1720l512 205l58 -172l-531 -145z" />
<glyph unicode="&#xde;" horiz-adv-x="1413" d="M176 0v1481h285v-293h317q123 0 225.5 -26.5t180 -78t121 -134.5t43.5 -189q0 -143 -69 -243.5t-188 -149t-278 -48.5h-352v-319h-285zM461 526h315q131 0 206 61t75 177q0 110 -78 163.5t-215 53.5h-303v-455z" />
<glyph unicode="&#xdf;" horiz-adv-x="1308" d="M61 846v176h127q2 97 32 178.5t88 145t154 99.5t220 36q192 0 291.5 -81t99.5 -214q0 -105 -61.5 -167t-196.5 -122l-38.5 -22t-23.5 -16.5t-16.5 -19.5t-3.5 -22q0 -25 17 -38t65 -27q148 -61 200 -92q161 -94 191 -242q8 -38 8 -80q0 -171 -115.5 -264.5t-305.5 -93.5 q-164 0 -275 69l78 158q31 -20 52.5 -31t58 -21t75.5 -10q93 0 149 44t56 124q0 34 -12 61.5t-28.5 45.5t-50 36.5t-59.5 28.5t-73 27q-48 19 -82.5 38.5t-68 49t-51 70.5t-17.5 92q0 72 37.5 124t113.5 103q6 4 29.5 21t31 23t26.5 21.5t26 26t17.5 26.5t14 33t3.5 36 q0 63 -46.5 100t-131.5 37q-106 0 -168 -64.5t-62 -179.5v-1069h-246v846h-129z" />
<glyph unicode="&#xe0;" horiz-adv-x="1134" d="M80 295q0 177 128 265t402 91l158 4v72q0 87 -54.5 133.5t-150.5 44.5q-82 0 -145 -38.5t-84 -114.5h-211q7 151 130 239t320 88q219 0 327 -89.5t108 -248.5v-741h-209l-21 184q-56 -113 -140 -158.5t-204 -45.5q-158 0 -256 84t-98 231zM272 1329l60 172l508 -205 l-37 -112zM319 319q0 -78 54.5 -123.5t140.5 -45.5q93 0 173.5 62t80.5 138v168l-129 -2q-320 -3 -320 -197z" />
<glyph unicode="&#xe1;" horiz-adv-x="1134" d="M80 295q0 177 128 265t402 91l158 4v72q0 87 -54.5 133.5t-150.5 44.5q-82 0 -145 -38.5t-84 -114.5h-211q7 151 130 239t320 88q219 0 327 -89.5t108 -248.5v-741h-209l-21 184q-56 -113 -140 -158.5t-204 -45.5q-158 0 -256 84t-98 231zM291 1296l512 205l57 -172 l-530 -145zM319 319q0 -78 54.5 -123.5t140.5 -45.5q93 0 173.5 62t80.5 138v168l-129 -2q-320 -3 -320 -197z" />
<glyph unicode="&#xe2;" horiz-adv-x="1134" d="M80 295q0 177 128 265t402 91l158 4v72q0 87 -54.5 133.5t-150.5 44.5q-82 0 -145 -38.5t-84 -114.5h-211q7 151 130 239t320 88q219 0 327 -89.5t108 -248.5v-741h-209l-21 184q-56 -113 -140 -158.5t-204 -45.5q-158 0 -256 84t-98 231zM225 1235l264 256h175l258 -256 h-209l-138 145l-153 -145h-197zM319 319q0 -78 54.5 -123.5t140.5 -45.5q93 0 173.5 62t80.5 138v168l-129 -2q-320 -3 -320 -197z" />
<glyph unicode="&#xe3;" horiz-adv-x="1134" d="M80 295q0 177 128 265t402 91l158 4v72q0 87 -54.5 133.5t-150.5 44.5q-82 0 -145 -38.5t-84 -114.5h-211q7 151 130 239t320 88q219 0 327 -89.5t108 -248.5v-741h-209l-21 184q-56 -113 -140 -158.5t-204 -45.5q-158 0 -256 84t-98 231zM248 1393q42 42 83.5 64 t100.5 22q57 0 150.5 -30t136.5 -30q73 0 158 64l36 -140q-83 -67 -194 -67q-57 0 -143.5 27.5t-135.5 27.5q-47 0 -78.5 -14.5t-72.5 -46.5zM319 319q0 -78 54.5 -123.5t140.5 -45.5q93 0 173.5 62t80.5 138v168l-129 -2q-320 -3 -320 -197z" />
<glyph unicode="&#xe4;" horiz-adv-x="1134" d="M80 295q0 177 128 265t402 91l158 4v72q0 87 -54.5 133.5t-150.5 44.5q-82 0 -145 -38.5t-84 -114.5h-211q7 151 130 239t320 88q219 0 327 -89.5t108 -248.5v-741h-209l-21 184q-56 -113 -140 -158.5t-204 -45.5q-158 0 -256 84t-98 231zM244 1247v236h258v-236h-258z M319 319q0 -78 54.5 -123.5t140.5 -45.5q93 0 173.5 62t80.5 138v168l-129 -2q-320 -3 -320 -197zM641 1247v236h258v-236h-258z" />
<glyph unicode="&#xe5;" horiz-adv-x="1134" d="M80 295q0 177 128 265t402 91l158 4v72q0 87 -54.5 133.5t-150.5 44.5q-82 0 -145 -38.5t-84 -114.5h-211q7 151 130 239t320 88q219 0 327 -89.5t108 -248.5v-741h-209l-21 184q-56 -113 -140 -158.5t-204 -45.5q-158 0 -256 84t-98 231zM319 319q0 -78 54.5 -123.5 t140.5 -45.5q93 0 173.5 62t80.5 138v168l-129 -2q-320 -3 -320 -197zM356 1393q0 87 63.5 148t153.5 61q92 0 156 -62t64 -151q0 -92 -64 -155t-156 -63q-91 0 -154 64t-63 158zM465 1386q0 -41 32.5 -73.5t73.5 -32.5q44 0 75.5 32t31.5 74q0 45 -31 75t-76 30 q-42 0 -74 -30t-32 -75z" />
<glyph unicode="&#xe6;" horiz-adv-x="1871" d="M80 279q0 157 133.5 250t396.5 110l164 12v74q0 90 -52.5 140t-152.5 50q-162 0 -250 -157l-210 55q64 133 176.5 199.5t296.5 66.5q272 -3 360 -155q128 155 346 155q226 0 365 -159.5t139 -438.5l-768 -2q0 -133 86.5 -228t210.5 -95q96 0 161.5 40.5t133.5 120.5 l158 -73q-84 -137 -202 -200.5t-282 -63.5q-244 0 -411 196q-9 8 -17 0q-56 -59 -109.5 -98.5t-140.5 -68.5t-192 -29q-161 0 -250.5 81t-89.5 218zM328 295q0 -72 49.5 -114.5t136.5 -39.5q108 3 184 58.5t76 136.5v176l-135 -10q-141 -11 -226 -64t-85 -143zM1030 627 l516 -2q0 113 -69.5 203t-180.5 90q-114 0 -190 -78.5t-76 -212.5z" />
<glyph unicode="&#xe7;" horiz-adv-x="1093" d="M80 524q0 247 138 401t362 154q180 0 298.5 -105.5t135.5 -277.5l-211 -2q-21 87 -77 140t-140 53q-125 0 -199 -96.5t-74 -262.5q0 -168 75 -267t200 -99q86 0 143.5 55t73.5 133h207q-17 -156 -120 -254.5t-259 -113.5l-35 -93q102 -4 149.5 -49.5t47.5 -105.5 q0 -75 -68.5 -119.5t-167.5 -44.5q-132 0 -217 55l37 90q74 -49 151 -49q51 0 78 18t27 50q0 44 -39.5 65.5t-128.5 22.5q-13 0 -16 3t2 13l61 146q-196 22 -315 169.5t-119 370.5z" />
<glyph unicode="&#xe8;" horiz-adv-x="1138" d="M80 518q0 164 58.5 290t173 198.5t268.5 72.5q229 0 353 -144t124 -388v-76h-729q0 -139 67.5 -222t192.5 -83q183 0 237 158h228q-22 -109 -91.5 -188.5t-164 -117.5t-203.5 -38q-231 0 -372.5 145t-141.5 393zM279 1329l59 172l508 -205l-37 -112zM328 627h495 q0 121 -62.5 196.5t-182.5 75.5q-116 0 -183 -81.5t-67 -190.5z" />
<glyph unicode="&#xe9;" horiz-adv-x="1138" d="M80 518q0 164 58.5 290t173 198.5t268.5 72.5q229 0 353 -144t124 -388v-76h-729q0 -139 67.5 -222t192.5 -83q183 0 237 158h228q-22 -109 -91.5 -188.5t-164 -117.5t-203.5 -38q-231 0 -372.5 145t-141.5 393zM297 1296l512 205l57 -172l-530 -145zM328 627h495 q0 121 -62.5 196.5t-182.5 75.5q-116 0 -183 -81.5t-67 -190.5z" />
<glyph unicode="&#xea;" horiz-adv-x="1138" d="M80 518q0 164 58.5 290t173 198.5t268.5 72.5q229 0 353 -144t124 -388v-76h-729q0 -139 67.5 -222t192.5 -83q183 0 237 158h228q-22 -109 -91.5 -188.5t-164 -117.5t-203.5 -38q-231 0 -372.5 145t-141.5 393zM229 1235l265 256h174l258 -256h-209l-137 145l-154 -145 h-197zM328 627h495q0 121 -62.5 196.5t-182.5 75.5q-116 0 -183 -81.5t-67 -190.5z" />
<glyph unicode="&#xeb;" horiz-adv-x="1138" d="M80 518q0 164 58.5 290t173 198.5t268.5 72.5q229 0 353 -144t124 -388v-76h-729q0 -139 67.5 -222t192.5 -83q183 0 237 158h228q-22 -109 -91.5 -188.5t-164 -117.5t-203.5 -38q-231 0 -372.5 145t-141.5 393zM250 1247v236h258v-236h-258zM328 627h495 q0 121 -62.5 196.5t-182.5 75.5q-116 0 -183 -81.5t-67 -190.5zM647 1247v236h258v-236h-258z" />
<glyph unicode="&#xec;" horiz-adv-x="544" d="M-25 1329l60 172l508 -205l-37 -112zM150 0v1059h249v-1059h-249z" />
<glyph unicode="&#xed;" horiz-adv-x="544" d="M-6 1296l512 205l57 -172l-530 -145zM150 0v1059h249v-1059h-249z" />
<glyph unicode="&#xee;" horiz-adv-x="544" d="M-72 1235l265 256h174l258 -256h-209l-137 145l-154 -145h-197zM150 0v1059h249v-1059h-249z" />
<glyph unicode="&#xef;" horiz-adv-x="544" d="M-51 1247v236h258v-236h-258zM150 0v1059h249v-1059h-249zM346 1247v236h258v-236h-258z" />
<glyph unicode="&#xf0;" horiz-adv-x="1206" d="M80 504q0 234 146 384t368 150q105 0 164 -59q-72 145 -228 254l-282 -160l-53 88l239 131q-90 49 -219 99l143 112q150 -45 260 -106l199 110l47 -90l-145 -82q203 -140 305 -344t102 -452q0 -253 -143 -406t-383 -153q-229 0 -374.5 148t-145.5 376zM334 510 q0 -163 74 -260.5t198 -97.5q123 0 194.5 97.5t71.5 260.5q0 164 -72.5 262t-195.5 98t-196.5 -98t-73.5 -262z" />
<glyph unicode="&#xf1;" horiz-adv-x="1214" d="M145 0v1059h246v-141q110 153 318 153q155 0 262.5 -101t107.5 -270v-700h-250v674q0 93 -55.5 145.5t-144.5 52.5q-97 0 -165.5 -46.5t-68.5 -129.5v-696h-250zM295 1393q42 42 83.5 64t100.5 22q57 0 150.5 -30t136.5 -30q73 0 158 64l37 -140q-83 -67 -195 -67 q-57 0 -143.5 27.5t-135.5 27.5q-47 0 -78.5 -14.5t-72.5 -46.5z" />
<glyph unicode="&#xf2;" horiz-adv-x="1159" d="M80 522q0 249 137.5 403t364.5 154q229 0 363 -154.5t134 -400.5q0 -243 -134.5 -393.5t-364.5 -150.5q-231 0 -365.5 149.5t-134.5 392.5zM281 1329l59 172l508 -205l-37 -112zM326 532q0 -102 24.5 -181t84 -131t147.5 -52q87 0 145.5 52t82.5 131t24 181q0 76 -14 139 t-43.5 113.5t-79 78.5t-115.5 28q-88 0 -147.5 -50.5t-84 -129t-24.5 -179.5z" />
<glyph unicode="&#xf3;" horiz-adv-x="1159" d="M80 522q0 249 137.5 403t364.5 154q229 0 363 -154.5t134 -400.5q0 -243 -134.5 -393.5t-364.5 -150.5q-231 0 -365.5 149.5t-134.5 392.5zM299 1296l512 205l57 -172l-530 -145zM326 532q0 -102 24.5 -181t84 -131t147.5 -52q87 0 145.5 52t82.5 131t24 181 q0 76 -14 139t-43.5 113.5t-79 78.5t-115.5 28q-88 0 -147.5 -50.5t-84 -129t-24.5 -179.5z" />
<glyph unicode="&#xf4;" horiz-adv-x="1159" d="M80 522q0 249 137.5 403t364.5 154q229 0 363 -154.5t134 -400.5q0 -243 -134.5 -393.5t-364.5 -150.5q-231 0 -365.5 149.5t-134.5 392.5zM231 1235l265 256h174l258 -256h-209l-137 145l-154 -145h-197zM326 532q0 -102 24.5 -181t84 -131t147.5 -52q87 0 145.5 52 t82.5 131t24 181q0 76 -14 139t-43.5 113.5t-79 78.5t-115.5 28q-88 0 -147.5 -50.5t-84 -129t-24.5 -179.5z" />
<glyph unicode="&#xf5;" horiz-adv-x="1159" d="M80 522q0 249 137.5 403t364.5 154q229 0 363 -154.5t134 -400.5q0 -243 -134.5 -393.5t-364.5 -150.5q-231 0 -365.5 149.5t-134.5 392.5zM254 1393q42 42 83.5 64t100.5 22q57 0 150.5 -30t136.5 -30q73 0 158 64l37 -140q-83 -67 -195 -67q-57 0 -143.5 27.5 t-135.5 27.5q-47 0 -78.5 -14.5t-72.5 -46.5zM326 532q0 -102 24.5 -181t84 -131t147.5 -52q87 0 145.5 52t82.5 131t24 181q0 76 -14 139t-43.5 113.5t-79 78.5t-115.5 28q-88 0 -147.5 -50.5t-84 -129t-24.5 -179.5z" />
<glyph unicode="&#xf6;" horiz-adv-x="1159" d="M80 522q0 249 137.5 403t364.5 154q229 0 363 -154.5t134 -400.5q0 -243 -134.5 -393.5t-364.5 -150.5q-231 0 -365.5 149.5t-134.5 392.5zM252 1247v236h258v-236h-258zM326 532q0 -102 24.5 -181t84 -131t147.5 -52q87 0 145.5 52t82.5 131t24 181q0 76 -14 139 t-43.5 113.5t-79 78.5t-115.5 28q-88 0 -147.5 -50.5t-84 -129t-24.5 -179.5zM649 1247v236h258v-236h-258z" />
<glyph unicode="&#xf7;" horiz-adv-x="1173" d="M123 651v187h928v-187h-928zM449 227v269h278v-269h-278zM449 995v269h278v-269h-278z" />
<glyph unicode="&#xf8;" horiz-adv-x="1228" d="M47 80l141 135q-71 130 -71 307q0 249 137 403t364 154q209 0 340 -131l125 121l88 -94l-135 -129q78 -135 78 -322q0 -243 -134 -393.5t-364 -150.5q-215 0 -348 133l-133 -127zM362 532q0 -72 15 -137l424 406q-64 90 -183 90q-88 0 -147.5 -50.5t-84 -129 t-24.5 -179.5zM428 266q71 -98 190 -98q87 0 145.5 52t82.5 131t24 181q0 82 -14 142z" />
<glyph unicode="&#xf9;" horiz-adv-x="1210" d="M141 334v727h250v-699q0 -98 62.5 -147t148.5 -49q94 0 157.5 54t63.5 151v690h252l-6 -1061h-190l-29 207q-17 -80 -69.5 -133.5t-113.5 -73.5t-130 -20q-69 1 -136 22t-126.5 62t-96.5 111t-37 159zM305 1329l60 172l507 -205l-36 -112z" />
<glyph unicode="&#xfa;" horiz-adv-x="1210" d="M141 334v727h250v-699q0 -98 62.5 -147t148.5 -49q94 0 157.5 54t63.5 151v690h252l-6 -1061h-190l-29 207q-17 -80 -69.5 -133.5t-113.5 -73.5t-130 -20q-69 1 -136 22t-126.5 62t-96.5 111t-37 159zM324 1296l512 205l57 -172l-531 -145z" />
<glyph unicode="&#xfb;" horiz-adv-x="1210" d="M141 334v727h250v-699q0 -98 62.5 -147t148.5 -49q94 0 157.5 54t63.5 151v690h252l-6 -1061h-190l-29 207q-17 -80 -69.5 -133.5t-113.5 -73.5t-130 -20q-69 1 -136 22t-126.5 62t-96.5 111t-37 159zM256 1235l264 256h174l258 -256h-209l-137 145l-153 -145h-197z" />
<glyph unicode="&#xfc;" horiz-adv-x="1210" d="M141 334v727h250v-699q0 -98 62.5 -147t148.5 -49q94 0 157.5 54t63.5 151v690h252l-6 -1061h-190l-29 207q-17 -80 -69.5 -133.5t-113.5 -73.5t-130 -20q-69 1 -136 22t-126.5 62t-96.5 111t-37 159zM276 1247v236h259v-236h-259zM674 1247v236h258v-236h-258z" />
<glyph unicode="&#xfd;" horiz-adv-x="1132" d="M39 1059h248l280 -748l283 748h244l-439 -1098q-70 -170 -158 -234.5t-216 -64.5q-59 0 -105 8t-62 16l-16 7v160l109 -3q48 -2 86 5t59 17.5t37.5 29t22 29.5t12.5 28l29 76zM309 1296l512 205l58 -172l-531 -145z" />
<glyph unicode="&#xfe;" horiz-adv-x="1224" d="M145 -330v1811h250v-561q29 33 52.5 54t64 49t93.5 42t116 14q188 0 305 -137.5t117 -400.5q0 -273 -119.5 -417t-318.5 -144q-164 0 -275 102q-20 17 -27.5 15t-7.5 -27v-400h-250zM395 256q105 -113 223 -113q127 0 200 99t73 301q0 193 -71.5 282.5t-192.5 89.5 q-97 0 -164.5 -59.5t-67.5 -130.5v-469z" />
<glyph unicode="&#xff;" horiz-adv-x="1132" d="M39 1059h248l280 -748l283 748h244l-439 -1098q-70 -170 -158 -234.5t-216 -64.5q-59 0 -105 8t-62 16l-16 7v160l109 -3q48 -2 86 5t59 17.5t37.5 29t22 29.5t12.5 28l29 76zM264 1247v236h258v-236h-258zM662 1247v236h258v-236h-258z" />
<glyph unicode="&#x152;" horiz-adv-x="2301" d="M117 735q0 360 183.5 563t506.5 203q250 0 373 -153l67 133h905v-211h-722v-420h507v-207h-507v-432h745v-211h-942l-53 131q-130 -151 -387 -151q-317 0 -496.5 199.5t-179.5 555.5zM414 733q0 -284 89.5 -416.5t278.5 -132.5q187 0 274 131.5t87 417.5q0 291 -89 428 t-274 137q-186 0 -276 -137.5t-90 -427.5z" />
<glyph unicode="&#x153;" horiz-adv-x="1970" d="M80 522q0 249 147 403t377 154q120 0 217.5 -47.5t159.5 -134.5q12 -12 20.5 -12t20.5 12q60 87 154.5 134.5t207.5 47.5q231 0 368.5 -159.5t137.5 -438.5h-766q0 -143 85.5 -234t211.5 -91q171 0 291 161l160 -73q-90 -143 -203 -203.5t-276 -60.5q-119 0 -216.5 46 t-162.5 130q-18 21 -37 -4q-136 -172 -375 -172q-233 0 -377.5 150t-144.5 392zM334 528q0 -180 72 -278t200 -98t197 97.5t69 278.5q0 183 -70 282t-198 99q-127 0 -198.5 -99.5t-71.5 -281.5zM1128 627l519 -2q0 73 -28.5 139t-87 110t-134.5 44q-117 0 -193.5 -80 t-75.5 -211z" />
<glyph unicode="&#x178;" d="M14 1481h273l364 -637l359 637h272l-508 -854v-627h-250v627zM346 1671v236h258v-236h-258zM743 1671v236h258v-236h-258z" />
<glyph unicode="&#x2c6;" horiz-adv-x="724" d="M14 1235l265 256h174l258 -256h-209l-137 145l-154 -145h-197z" />
<glyph unicode="&#x2dc;" horiz-adv-x="784" d="M57 1393q41 41 83.5 63.5t101.5 22.5q57 0 150 -30t136 -30q73 0 158 64l37 -140q-83 -67 -195 -67q-57 0 -143 27.5t-135 27.5q-47 0 -79 -14.5t-73 -46.5z" />
<glyph unicode="&#x2000;" horiz-adv-x="1011" />
<glyph unicode="&#x2001;" horiz-adv-x="2023" />
<glyph unicode="&#x2002;" horiz-adv-x="1011" />
<glyph unicode="&#x2003;" horiz-adv-x="2023" />
<glyph unicode="&#x2004;" horiz-adv-x="674" />
<glyph unicode="&#x2005;" horiz-adv-x="505" />
<glyph unicode="&#x2006;" horiz-adv-x="337" />
<glyph unicode="&#x2007;" horiz-adv-x="337" />
<glyph unicode="&#x2008;" horiz-adv-x="252" />
<glyph unicode="&#x2009;" horiz-adv-x="404" />
<glyph unicode="&#x200a;" horiz-adv-x="112" />
<glyph unicode="&#x2010;" horiz-adv-x="796" d="M123 434v187h541v-187h-541z" />
<glyph unicode="&#x2011;" horiz-adv-x="796" d="M123 434v187h541v-187h-541z" />
<glyph unicode="&#x2012;" horiz-adv-x="796" d="M123 434v187h541v-187h-541z" />
<glyph unicode="&#x2013;" horiz-adv-x="1183" d="M123 418v186h928v-186h-928z" />
<glyph unicode="&#x2014;" horiz-adv-x="1830" d="M123 418v186h1575v-186h-1575z" />
<glyph unicode="&#x2018;" horiz-adv-x="516" d="M92 1010v227l193 307h100l-117 -268l97 -6v-260h-273z" />
<glyph unicode="&#x2019;" horiz-adv-x="487" d="M102 946l117 268l-96 9v258h270v-228l-190 -307h-101z" />
<glyph unicode="&#x201a;" horiz-adv-x="534" d="M92 -270l117 266l-96 8v260h272v-229l-192 -305h-101z" />
<glyph unicode="&#x201c;" horiz-adv-x="925" d="M94 946v230l193 305h100l-117 -267l97 -8v-260h-273zM504 946v230l190 305h101l-117 -267l98 -8v-260h-272z" />
<glyph unicode="&#x201d;" horiz-adv-x="894" d="M102 946l117 268l-96 9v258h270v-228l-190 -307h-101zM510 946l119 268l-99 9v258h273v-228l-193 -307h-100z" />
<glyph unicode="&#x201e;" horiz-adv-x="952" d="M92 -270l117 266l-96 8v260h272v-229l-192 -305h-101zM512 -270l115 266l-97 8v260h273v-229l-191 -305h-100z" />
<glyph unicode="&#x2022;" horiz-adv-x="688" d="M104 754q0 95 68.5 163t163.5 68t163 -68t68 -163t-68 -163.5t-163 -68.5t-163.5 68.5t-68.5 163.5z" />
<glyph unicode="&#x2026;" horiz-adv-x="1701" d="M139 0v287h281v-287h-281zM741 0v287h281v-287h-281zM1341 0v287h283v-287h-283z" />
<glyph unicode="&#x202f;" horiz-adv-x="404" />
<glyph unicode="&#x2039;" horiz-adv-x="604" d="M94 514l254 393h137l-186 -393l184 -377h-135z" />
<glyph unicode="&#x203a;" horiz-adv-x="602" d="M109 907h135l254 -393l-254 -377h-133l182 377z" />
<glyph unicode="&#x205f;" horiz-adv-x="505" />
<glyph unicode="&#x20ac;" horiz-adv-x="1286" d="M-8 506v143h168q-4 66 -4 99q0 30 4 88h-168v143h186q53 246 211.5 384t390.5 138q126 0 236 -47.5t188 -132.5l-172 -139q-57 56 -109.5 86t-119.5 30q-270 0 -338 -319h371v-141h-390q-2 -31 -2 -93q0 -19 5 -96h387v-143h-367q38 -156 126.5 -233.5t219.5 -77.5 q70 0 138.5 33.5t117.5 82.5l135 -147q-79 -83 -189 -133.5t-233 -50.5q-231 0 -390.5 140t-213.5 386h-188z" />
<glyph unicode="&#x2122;" horiz-adv-x="1916" d="M16 784v142h721v-142h-278v-784h-156v784h-287zM870 0v926h224l241 -707l246 707h221v-926h-157v725l-244 -725h-131l-242 721v-721h-158z" />
<glyph unicode="&#x25fc;" horiz-adv-x="1054" d="M0 0v1055h1055v-1055h-1055z" />
</font>
</defs>
</svg>
